<svg width="982" height="680" viewBox="0 0 982 680" fill="none" xmlns="http://www.w3.org/2000/svg">
<path d="M21.9277 432.398L1.70099 435.359L4.66193 455.586L24.8886 452.625L21.9277 432.398Z" stroke="#5BE16E" stroke-width="3"/>
<path d="M256.799 355.04L238.642 344.071L227.673 362.228L245.83 373.197L256.799 355.04Z" stroke="#5563E5" stroke-width="3"/>
<path d="M884.605 70.5236L870.559 60.0728L860.109 74.1184L874.154 84.5692L884.605 70.5236Z" stroke="#5BE16E" stroke-width="3"/>
<path d="M963 399L971 385L979 399H963Z" stroke="#CB654E" stroke-width="3"/>
<path d="M346 666.683L364.779 656L365 677L346 666.683Z" stroke="#5563E5" stroke-width="3"/>
<path d="M54.5 25C60.299 25 65 19.8513 65 13.5C65 7.14873 60.299 2 54.5 2C48.701 2 44 7.14873 44 13.5C44 19.8513 48.701 25 54.5 25Z" stroke="#FFB400" stroke-width="3"/>
<path d="M615 423C621.075 423 626 417.851 626 411.5C626 405.149 621.075 400 615 400C608.925 400 604 405.149 604 411.5C604 417.851 608.925 423 615 423Z" stroke="#FF2F00" stroke-width="3"/>
</svg>
